<mxfile host="app.diagrams.net" modified="2022-02-18T14:05:16.673Z" agent="5.0 (Macintosh; Intel Mac OS X 10_15_7) AppleWebKit/605.1.15 (KHTML, like Gecko) Version/14.1.1 Safari/605.1.15" etag="BJMKCJTtSZ44gsFYuHqJ" version="16.6.1" type="github">
  <diagram id="uhZRrbbooafKq6Ty_Mqz" name="Page-1">
    <mxGraphModel dx="946" dy="558" grid="1" gridSize="10" guides="1" tooltips="1" connect="1" arrows="1" fold="1" page="1" pageScale="1" pageWidth="827" pageHeight="1169" math="0" shadow="0">
      <root>
        <mxCell id="0" />
        <mxCell id="1" parent="0" />
        <mxCell id="T0rcanwpA7fi5b8NUpEl-1" value="" style="ellipse;whiteSpace=wrap;html=1;aspect=fixed;strokeWidth=5;fontSize=16;" vertex="1" parent="1">
          <mxGeometry x="260" y="140" width="310" height="310" as="geometry" />
        </mxCell>
        <mxCell id="T0rcanwpA7fi5b8NUpEl-2" value="" style="endArrow=classic;html=1;rounded=0;entryX=0.5;entryY=0;entryDx=0;entryDy=0;fontSize=16;" edge="1" parent="1" target="T0rcanwpA7fi5b8NUpEl-1">
          <mxGeometry width="50" height="50" relative="1" as="geometry">
            <mxPoint x="415" y="110" as="sourcePoint" />
            <mxPoint x="450" y="50" as="targetPoint" />
          </mxGeometry>
        </mxCell>
        <mxCell id="T0rcanwpA7fi5b8NUpEl-3" value="0" style="text;html=1;align=center;verticalAlign=middle;resizable=0;points=[];autosize=1;strokeColor=#36393d;fillColor=#ffff88;fontSize=16;" vertex="1" parent="1">
          <mxGeometry x="420" y="90" width="20" height="20" as="geometry" />
        </mxCell>
        <mxCell id="T0rcanwpA7fi5b8NUpEl-4" value="" style="endArrow=classic;html=1;rounded=0;entryX=0.5;entryY=0;entryDx=0;entryDy=0;fontSize=16;" edge="1" parent="1">
          <mxGeometry width="50" height="50" relative="1" as="geometry">
            <mxPoint x="405" y="110" as="sourcePoint" />
            <mxPoint x="405" y="140" as="targetPoint" />
          </mxGeometry>
        </mxCell>
        <mxCell id="T0rcanwpA7fi5b8NUpEl-5" value="2^32-1" style="text;html=1;align=center;verticalAlign=middle;resizable=0;points=[];autosize=1;strokeColor=#36393d;fillColor=#cce5ff;fontSize=16;" vertex="1" parent="1">
          <mxGeometry x="340" y="90" width="60" height="20" as="geometry" />
        </mxCell>
        <mxCell id="T0rcanwpA7fi5b8NUpEl-6" value="A-01" style="ellipse;whiteSpace=wrap;html=1;aspect=fixed;fontSize=16;strokeWidth=5;fillColor=#ffcc99;strokeColor=none;" vertex="1" parent="1">
          <mxGeometry x="430" y="120" width="60" height="60" as="geometry" />
        </mxCell>
        <mxCell id="T0rcanwpA7fi5b8NUpEl-19" value="B-01" style="ellipse;whiteSpace=wrap;html=1;aspect=fixed;fontSize=16;strokeWidth=5;fillColor=#cdeb8b;strokeColor=none;" vertex="1" parent="1">
          <mxGeometry x="520" y="180" width="60" height="60" as="geometry" />
        </mxCell>
        <mxCell id="T0rcanwpA7fi5b8NUpEl-20" value="C-01" style="ellipse;whiteSpace=wrap;html=1;aspect=fixed;fontSize=16;strokeWidth=5;fillColor=#ffcccc;strokeColor=none;" vertex="1" parent="1">
          <mxGeometry x="540" y="270" width="60" height="60" as="geometry" />
        </mxCell>
        <mxCell id="T0rcanwpA7fi5b8NUpEl-21" value="A-02" style="ellipse;whiteSpace=wrap;html=1;aspect=fixed;fontSize=16;strokeWidth=5;fillColor=#ffcc99;strokeColor=none;" vertex="1" parent="1">
          <mxGeometry x="500" y="380" width="60" height="60" as="geometry" />
        </mxCell>
        <mxCell id="T0rcanwpA7fi5b8NUpEl-22" value="B-02" style="ellipse;whiteSpace=wrap;html=1;aspect=fixed;fontSize=16;strokeWidth=5;fillColor=#cdeb8b;strokeColor=none;" vertex="1" parent="1">
          <mxGeometry x="380" y="410" width="60" height="60" as="geometry" />
        </mxCell>
        <mxCell id="T0rcanwpA7fi5b8NUpEl-23" value="C-02" style="ellipse;whiteSpace=wrap;html=1;aspect=fixed;fontSize=16;strokeWidth=5;fillColor=#ffcccc;strokeColor=none;" vertex="1" parent="1">
          <mxGeometry x="270" y="370" width="60" height="60" as="geometry" />
        </mxCell>
        <mxCell id="T0rcanwpA7fi5b8NUpEl-24" value="A-03" style="ellipse;whiteSpace=wrap;html=1;aspect=fixed;fontSize=16;strokeWidth=5;fillColor=#ffcc99;strokeColor=none;" vertex="1" parent="1">
          <mxGeometry x="230" y="280" width="60" height="60" as="geometry" />
        </mxCell>
        <mxCell id="T0rcanwpA7fi5b8NUpEl-25" value="B-03" style="ellipse;whiteSpace=wrap;html=1;aspect=fixed;fontSize=16;strokeWidth=5;fillColor=#cdeb8b;strokeColor=none;" vertex="1" parent="1">
          <mxGeometry x="260" y="180" width="60" height="60" as="geometry" />
        </mxCell>
        <mxCell id="T0rcanwpA7fi5b8NUpEl-26" value="C-03" style="ellipse;whiteSpace=wrap;html=1;aspect=fixed;fontSize=16;strokeWidth=5;fillColor=#ffcccc;strokeColor=none;" vertex="1" parent="1">
          <mxGeometry x="340" y="120" width="60" height="60" as="geometry" />
        </mxCell>
      </root>
    </mxGraphModel>
  </diagram>
</mxfile>
